<?xml version="1.0" encoding="utf-8"?>
<!-- Generator: Adobe Illustrator 21.0.0, SVG Export Plug-In . SVG Version: 6.00 Build 0)  -->
<svg version="1.1" id="Isolation_Mode" xmlns="http://www.w3.org/2000/svg" xmlns:xlink="http://www.w3.org/1999/xlink" x="0px"
	 y="0px" viewBox="0 0 792 255" style="enable-background:new 0 0 792 255;" xml:space="preserve">
<style type="text/css">
	.st0{fill:#FFFFFF;}
</style>
<g>
	<path class="st0" d="M221.3,18.9c13.1,0,25.5,2.6,36.8,7.3c-38.2-3.9-75.9,14.7-112.9,56.1c45.8-34.5,91-48.7,135.7-42.7
		c5.1,4.1,9.8,8.7,14,13.7c-40.5-7.1-80.6,11.2-119.9,55.2c43.3-32.5,86-47,128.1-43.5c2.8,4.7,5.1,9.7,7,14.9
		c-35.2-3-71.4,13.5-108.4,49.7c38.8-25.2,76.1-37.6,112-36.8c1.1,5.5,1.7,11.2,1.7,17.1c0,50.1-42.3,91-94.1,91s-94.1-40.9-94.1-91
		C127.2,59.8,169.5,18.9,221.3,18.9"/>
	<path class="st0" d="M216.8,158.6h1.1h504.2V153l-503,0.3l-53.3-1.8c-21.7-1.7-38.4-4.1-49.8-6.6c-19.2-4.9-30.2-10.8-33-18
		c-2.7-6.3,1.1-12.5,11.6-18.1l22.2-9.3l10.4-3.5c2.5-1.3,1.8-1.4-2.1-0.7l-14.7,3.2c-6.2,1.7-11.2,3.2-15.7,4.9
		c-4.9,1.7-10.1,3.8-15.1,6.6c-8.4,4.6-13.2,9.5-14.3,14.5c-1.7,7,4.2,13.7,17.3,20.1c9.1,4.5,21,7.6,35.4,9.7l38.9,3.5
		C170.7,158.4,190.7,158.6,216.8,158.6"/>
	<path class="st0" d="M722,34.9l-19.2,15c-6.7-8.3-13.6-12.4-20.6-12.4c-3.4,0-6.2,0.8-8.4,2.4c-2.2,1.6-3.3,3.4-3.3,5.5
		s0.8,4,2.3,5.7c2.1,2.4,8.5,7.6,19.1,15.5c9.9,7.3,15.9,12,18,13.9c5.3,4.7,9,9.2,11.2,13.5s3.3,9,3.3,14.1
		c0,9.9-3.9,18.1-11.6,24.5c-7.7,6.4-17.8,9.7-30.3,9.7c-9.7,0-18.2-2.1-25.4-6.3s-13.4-10.8-18.5-19.9l21.9-11.7
		c6.6,10.6,14.1,16,22.7,16c4.5,0,8.2-1.1,11.3-3.4c3-2.3,4.6-5,4.6-8c0-2.7-1.1-5.5-3.4-8.2c-2.3-2.7-7.3-6.9-15.2-12.6
		c-14.9-10.7-24.5-19-28.8-24.8s-6.5-11.6-6.5-17.4c0-8.4,3.6-15.6,10.8-21.5c7.2-6,16.1-9,26.7-9c6.8,0,13.3,1.4,19.4,4.2
		C708.2,22.5,714.8,27.5,722,34.9 M572.8,86.4v30.9h6.6c10.9,0,18.3-1.2,22.1-3.6s5.7-5.9,5.7-10.5c0-5.2-2.2-9.3-6.7-12.3
		s-11.9-4.5-22.2-4.5H572.8z M572.8,40.4V66h5.8c6.5,0,11.3-1.2,14.4-3.6c3.1-2.4,4.7-5.6,4.7-9.6c0-3.8-1.5-6.8-4.5-9
		s-7.5-3.3-13.6-3.3h-6.8V40.4z M546.9,139.2V18.5h21.5c12.5,0,21.6,0.7,27.4,2.1c8.2,1.9,14.7,5.5,19.6,10.7
		c4.8,5.2,7.3,11.3,7.3,18.4c0,4.6-1.1,8.8-3.3,12.5c-2.2,3.8-5.8,7.3-10.7,10.6c8.3,3.4,14.3,7.7,18.1,12.9
		c3.8,5.2,5.7,11.3,5.7,18.3c0,6.8-2,12.9-5.9,18.5c-4,5.6-9.1,9.8-15.4,12.5c-6.3,2.8-14.9,4.1-26,4.1L546.9,139.2L546.9,139.2z
		 M472.1,50.6l-18.5,41.6h36.9L472.1,50.6z M459,18.5h26.1l52.5,120.7h-27L500,114.4h-55.9l-10.9,24.9h-27L459,18.5z M372,65.8h8.3
		c6.6,0,11.1-0.4,13.6-1.2c2.6-0.8,4.6-2.2,6-4.1c1.5-1.9,2.2-4.2,2.2-6.9c0-4.7-2.1-8.1-6.2-10.2c-3-1.6-8.5-2.4-16.6-2.4H372V65.8
		z M346.1,18.5h27.6c14.9,0,25.6,1.2,32.2,3.6s11.8,6.4,15.6,11.8c3.8,5.4,5.7,12,5.7,19.6c0,8.4-2.5,15.4-7.5,21S408,84,399.4,86.2
		c-5,1.3-14.2,1.9-27.4,1.9v51.1h-25.8V18.5H346.1z"/>
	<path class="st0" d="M654.1,221.6l-3.1,3.1c-1.3-1.3-2.4-1.9-3.4-1.9c-0.6,0-1,0.1-1.3,0.4c-0.3,0.2-0.5,0.5-0.5,0.9
		c0,0.3,0.1,0.5,0.3,0.7s0.7,0.5,1.5,0.9l1.8,0.9c1.9,1,3.3,1.9,4,2.9s1.1,2.2,1.1,3.5c0,1.8-0.7,3.3-2,4.5s-3.1,1.8-5.3,1.8
		c-2.9,0-5.3-1.1-7-3.4l3.1-3.4c0.6,0.7,1.3,1.3,2.1,1.7s1.5,0.6,2.1,0.6c0.7,0,1.2-0.2,1.6-0.5c0.4-0.3,0.6-0.7,0.6-1.1
		c0-0.8-0.7-1.5-2.2-2.3l-1.7-0.9c-3.3-1.6-4.9-3.7-4.9-6.1c0-1.6,0.6-2.9,1.8-4.1c1.2-1.1,2.8-1.7,4.7-1.7c1.3,0,2.5,0.3,3.7,0.9
		C652.3,219.7,653.3,220.5,654.1,221.6 M632.6,226.3c-0.3-1.1-1-2-2-2.7s-2.1-1-3.4-1c-1.4,0-2.6,0.4-3.7,1.2
		c-0.7,0.5-1.3,1.3-1.8,2.6h10.9V226.3z M637.6,230.2h-16.2c0.2,1.4,0.9,2.6,1.9,3.4c1,0.8,2.3,1.3,3.9,1.3c1.9,0,3.5-0.7,4.8-2
		l4.2,2c-1.1,1.5-2.3,2.6-3.8,3.3s-3.2,1.1-5.3,1.1c-3.1,0-5.7-1-7.7-3s-3-4.5-3-7.5c0-3.1,1-5.6,3-7.6s4.5-3,7.4-3
		c3.2,0,5.7,1,7.7,3s3,4.7,3,8L637.6,230.2z M612.9,222.8l-4.2,2.3c-0.8-0.8-1.6-1.4-2.3-1.7c-0.8-0.3-1.7-0.5-2.7-0.5
		c-1.9,0-3.4,0.6-4.6,1.7c-1.2,1.1-1.7,2.6-1.7,4.3s0.6,3.1,1.7,4.2c1.1,1.1,2.6,1.6,4.4,1.6c2.3,0,4-0.8,5.3-2.3l4,2.7
		c-2.2,2.8-5.2,4.2-9.1,4.2c-3.5,0-6.3-1-8.3-3.1s-3-4.5-3-7.3c0-1.9,0.5-3.7,1.5-5.4c1-1.6,2.3-2.9,4.1-3.9
		c1.7-0.9,3.7-1.4,5.9-1.4c2,0,3.8,0.4,5.4,1.2C610.6,220.2,611.9,221.3,612.9,222.8z M583.6,218.7h5v20.1h-5V218.7z M586.1,210.4
		c0.9,0,1.6,0.3,2.3,1c0.6,0.6,1,1.4,1,2.3c0,0.9-0.3,1.7-0.9,2.3c-0.6,0.6-1.4,0.9-2.3,0.9c-0.9,0-1.7-0.3-2.3-1
		c-0.6-0.6-1-1.4-1-2.3c0-0.9,0.3-1.6,0.9-2.3C584.5,210.8,585.2,210.4,586.1,210.4z M560.8,218.7h5.2l5.1,11.9l5.1-11.9h5.1
		l-8.7,20.1h-3.2L560.8,218.7z M549.6,218.7h4.4v2.6c0.5-1,1.1-1.8,1.9-2.3c0.8-0.5,1.6-0.8,2.5-0.8c0.7,0,1.3,0.2,2,0.5l-1.6,4.4
		c-0.6-0.3-1.1-0.4-1.5-0.4c-0.8,0-1.4,0.5-2,1.4c-0.5,1-0.8,2.8-0.8,5.6v1v8.1h-5L549.6,218.7L549.6,218.7z M541.7,226.3
		c-0.3-1.1-1-2-2-2.7s-2.1-1-3.4-1c-1.4,0-2.6,0.4-3.7,1.2c-0.7,0.5-1.3,1.3-1.8,2.6h10.9V226.3z M546.7,230.2h-16.2
		c0.2,1.4,0.9,2.6,1.9,3.4c1,0.8,2.3,1.3,3.9,1.3c1.9,0,3.5-0.7,4.8-2l4.2,2c-1.1,1.5-2.3,2.6-3.8,3.3s-3.2,1.1-5.3,1.1
		c-3.1,0-5.7-1-7.7-3s-3-4.5-3-7.5c0-3.1,1-5.6,3-7.6s4.5-3,7.4-3c3.2,0,5.7,1,7.7,3s3,4.7,3,8L546.7,230.2z M521.7,215.3l-3.8,3.4
		c-1.3-1.9-2.7-2.8-4.1-2.8c-0.7,0-1.2,0.2-1.7,0.5c-0.4,0.4-0.7,0.8-0.7,1.2c0,0.5,0.2,0.9,0.5,1.3c0.4,0.5,1.7,1.7,3.8,3.5
		c2,1.7,3.2,2.7,3.6,3.1c1,1.1,1.8,2.1,2.2,3c0.4,1,0.7,2,0.7,3.2c0,2.2-0.8,4.1-2.3,5.5c-1.5,1.5-3.6,2.2-6,2.2
		c-1.9,0-3.6-0.5-5.1-1.4c-1.4-1-2.7-2.4-3.7-4.5l4.4-2.6c1.3,2.4,2.8,3.6,4.5,3.6c0.9,0,1.6-0.3,2.2-0.8c0.6-0.5,0.9-1.1,0.9-1.8
		c0-0.6-0.2-1.2-0.7-1.8s-1.5-1.6-3-2.8c-3-2.4-4.9-4.3-5.7-5.6c-0.9-1.3-1.3-2.6-1.3-3.9c0-1.9,0.7-3.5,2.2-4.9
		c1.4-1.4,3.2-2,5.3-2c1.4,0,2.7,0.3,3.9,0.9C518.9,212.5,520.2,213.7,521.7,215.3z M491.9,221.6l-3.1,3.1c-1.3-1.3-2.4-1.9-3.4-1.9
		c-0.6,0-1,0.1-1.3,0.4c-0.3,0.2-0.5,0.5-0.5,0.9c0,0.3,0.1,0.5,0.3,0.7c0.2,0.2,0.7,0.5,1.5,0.9l1.8,0.9c1.9,1,3.3,1.9,4,2.9
		s1.1,2.2,1.1,3.5c0,1.8-0.7,3.3-2,4.5s-3.1,1.8-5.3,1.8c-2.9,0-5.3-1.1-7-3.4l3.1-3.4c0.6,0.7,1.3,1.3,2.1,1.7
		c0.8,0.4,1.5,0.6,2.1,0.6c0.7,0,1.2-0.2,1.6-0.5s0.6-0.7,0.6-1.1c0-0.8-0.7-1.5-2.2-2.3l-1.7-0.9c-3.3-1.6-4.9-3.7-4.9-6.1
		c0-1.6,0.6-2.9,1.8-4.1c1.2-1.1,2.8-1.7,4.7-1.7c1.3,0,2.5,0.3,3.7,0.9C490.1,219.7,491.1,220.5,491.9,221.6z M475.2,221.6
		l-3.1,3.1c-1.3-1.3-2.4-1.9-3.4-1.9c-0.6,0-1,0.1-1.3,0.4c-0.3,0.2-0.5,0.5-0.5,0.9c0,0.3,0.1,0.5,0.3,0.7c0.2,0.2,0.7,0.5,1.5,0.9
		l1.8,0.9c1.9,1,3.3,1.9,4,2.9s1.1,2.2,1.1,3.5c0,1.8-0.7,3.3-2,4.5s-3.1,1.8-5.3,1.8c-2.9,0-5.3-1.1-7-3.4l3.1-3.4
		c0.6,0.7,1.3,1.3,2.1,1.7c0.8,0.4,1.5,0.6,2.1,0.6c0.7,0,1.2-0.2,1.6-0.5s0.6-0.7,0.6-1.1c0-0.8-0.7-1.5-2.2-2.3l-1.7-0.9
		c-3.3-1.6-4.9-3.7-4.9-6.1c0-1.6,0.6-2.9,1.8-4.1c1.2-1.1,2.8-1.7,4.7-1.7c1.3,0,2.5,0.3,3.7,0.9
		C473.4,219.7,474.4,220.5,475.2,221.6z M453.7,226.3c-0.3-1.1-1-2-2-2.7s-2.1-1-3.4-1c-1.4,0-2.6,0.4-3.7,1.2
		c-0.7,0.5-1.3,1.3-1.8,2.6h10.9V226.3z M458.8,230.2h-16.2c0.2,1.4,0.9,2.6,1.9,3.4c1,0.8,2.3,1.3,3.9,1.3c1.9,0,3.5-0.7,4.8-2
		l4.2,2c-1.1,1.5-2.3,2.6-3.8,3.3s-3.2,1.1-5.3,1.1c-3.1,0-5.7-1-7.7-3s-3-4.5-3-7.5c0-3.1,1-5.6,3-7.6s4.5-3,7.4-3
		c3.2,0,5.7,1,7.7,3s3,4.7,3,8L458.8,230.2z M415.9,218.7h5v2.1c1.1-1,2.2-1.6,3.1-2s1.9-0.6,2.9-0.6c2,0,3.7,0.7,5.1,2.1
		c1.2,1.2,1.8,2.9,1.8,5.2v13.3h-5V230c0-2.4-0.1-4-0.3-4.8c-0.2-0.8-0.6-1.4-1.1-1.8c-0.5-0.4-1.2-0.6-2-0.6c-1,0-1.9,0.3-2.6,1
		s-1.2,1.6-1.5,2.8c-0.1,0.6-0.2,2-0.2,4.1v8.1h-5v-20.1H415.9z M406.3,218.7h5v20.1h-5V218.7z M408.8,210.4c0.9,0,1.6,0.3,2.3,1
		c0.6,0.6,1,1.4,1,2.3c0,0.9-0.3,1.7-0.9,2.3s-1.4,0.9-2.3,0.9s-1.7-0.3-2.3-1c-0.6-0.6-1-1.4-1-2.3c0-0.9,0.3-1.6,0.9-2.3
		C407.1,210.8,407.9,210.4,408.8,210.4z M402.4,221.6l-3.1,3.1c-1.3-1.3-2.4-1.9-3.4-1.9c-0.6,0-1,0.1-1.3,0.4
		c-0.3,0.2-0.5,0.5-0.5,0.9c0,0.3,0.1,0.5,0.3,0.7c0.2,0.2,0.7,0.5,1.5,0.9l1.8,0.9c1.9,1,3.3,1.9,4,2.9s1.1,2.2,1.1,3.5
		c0,1.8-0.7,3.3-2,4.5s-3.1,1.8-5.3,1.8c-2.9,0-5.3-1.1-7-3.4l3.1-3.4c0.6,0.7,1.3,1.3,2.1,1.7c0.8,0.4,1.5,0.6,2.1,0.6
		c0.7,0,1.2-0.2,1.6-0.5s0.6-0.7,0.6-1.1c0-0.8-0.7-1.5-2.2-2.3l-1.7-0.9c-3.3-1.6-4.9-3.7-4.9-6.1c0-1.6,0.6-2.9,1.8-4.1
		c1.2-1.1,2.8-1.7,4.7-1.7c1.3,0,2.5,0.3,3.7,0.9C400.7,219.7,401.6,220.5,402.4,221.6z M367.4,218.7h5.1v9.7c0,1.9,0.1,3.2,0.4,3.9
		s0.7,1.3,1.3,1.7c0.6,0.4,1.3,0.6,2.1,0.6c0.8,0,1.6-0.2,2.1-0.6c0.6-0.4,1-1,1.3-1.8c0.2-0.6,0.3-1.8,0.3-3.7v-9.8h5v8.5
		c0,3.5-0.3,5.9-0.8,7.2c-0.7,1.6-1.7,2.8-3,3.6s-3,1.3-5,1.3c-2.2,0-4-0.5-5.4-1.5s-2.3-2.4-2.9-4.1c-0.4-1.2-0.6-3.4-0.6-6.7v-8.3
		H367.4z M351.1,226.9v7h1.3c2.2,0,3.7-0.3,4.4-0.8c0.8-0.5,1.1-1.3,1.1-2.4c0-1.2-0.4-2.1-1.3-2.8s-2.4-1-4.4-1H351.1z
		 M351.1,216.6v5.8h1.2c1.3,0,2.2-0.3,2.9-0.8c0.6-0.5,0.9-1.3,0.9-2.2s-0.3-1.5-0.9-2s-1.5-0.8-2.7-0.8H351.1z M345.9,238.8v-27.2
		h4.3c2.5,0,4.3,0.2,5.5,0.5c1.6,0.4,2.9,1.2,3.9,2.4s1.5,2.6,1.5,4.1c0,1-0.2,2-0.7,2.8c-0.4,0.8-1.1,1.6-2.1,2.4
		c1.6,0.8,2.9,1.7,3.6,2.9c0.8,1.2,1.1,2.5,1.1,4.1c0,1.5-0.4,2.9-1.2,4.2c-0.8,1.3-1.8,2.2-3.1,2.8c-1.3,0.6-3,0.9-5.2,0.9h-7.6
		V238.8z M715.5,197.6c-1-0.9-2.3-2.5-4-4.6c-1.8,1.5-2.8,2.8-2.8,4c0,0.5,0.3,1,0.8,1.5c0.5,0.4,1.1,0.7,1.9,0.7
		C712.5,199,713.9,198.6,715.5,197.6z M712.4,186.4c1.4-1.2,2.1-2.2,2.1-3.1c0-0.5-0.2-0.8-0.5-1.1s-0.7-0.4-1.2-0.4
		s-0.9,0.2-1.2,0.5s-0.5,0.7-0.5,1.2C711.1,184.2,711.6,185.2,712.4,186.4z M722.3,192.4l3.1,3.5l-1.4,1.3l-1.4,1.3l4.4,4.7h-6.3
		l-1.8-1.9c-2.9,1.7-5.5,2.5-8,2.5c-2.1,0-3.8-0.6-5.1-1.8s-1.9-2.8-1.9-4.7c0-1.4,0.4-2.8,1.1-4.1c0.7-1.3,2-2.6,3.8-4
		c-1.7-2.4-2.6-4.4-2.6-6.3c0-1.3,0.6-2.7,1.7-4c1.2-1.3,2.8-2,4.9-2c2.1,0,3.8,0.6,4.9,1.9c1.1,1.3,1.7,2.6,1.7,3.9
		c0,1-0.3,2-0.8,3s-1.7,2.4-3.6,4.2c2.2,2.6,3.6,4.2,4.3,4.9C719.6,194.6,720.7,193.7,722.3,192.4z M678.7,187.2
		c-1.6,0-2.9,0.5-4,1.6c-1,1.1-1.6,2.4-1.6,4c0,1.7,0.5,3,1.6,4.1s2.4,1.6,4,1.6s2.9-0.5,3.9-1.6c1-1,1.5-2.4,1.5-4.1
		c0-1.7-0.5-3-1.5-4.1C681.6,187.7,680.3,187.2,678.7,187.2z M683.9,182.9h5v17.2c0,3.4-0.7,5.9-2.1,7.5c-1.8,2.2-4.6,3.3-8.3,3.3
		c-2,0-3.6-0.2-5-0.7c-1.3-0.5-2.5-1.2-3.4-2.2s-1.6-2.1-2.1-3.5h5.6c0.5,0.6,1.1,1,1.9,1.3c0.8,0.3,1.7,0.4,2.8,0.4
		c1.4,0,2.5-0.2,3.3-0.6c0.8-0.4,1.4-1,1.8-1.6c0.3-0.7,0.5-1.8,0.5-3.4c-0.9,0.9-1.8,1.5-2.8,1.9s-2.1,0.6-3.3,0.6
		c-2.7,0-5-1-6.9-2.9s-2.8-4.4-2.8-7.4c0-3.2,1-5.8,3-7.7c1.8-1.7,3.9-2.6,6.4-2.6c1.2,0,2.3,0.2,3.3,0.6c1,0.4,2.1,1.1,3.1,2.1
		V182.9z M646.3,182.9h5v2.1c1.1-1,2.2-1.6,3.1-2c0.9-0.4,1.9-0.6,2.9-0.6c2,0,3.7,0.7,5.1,2.1c1.2,1.2,1.8,2.9,1.8,5.2V203h-5v-8.8
		c0-2.4-0.1-4-0.3-4.8s-0.6-1.4-1.1-1.8c-0.5-0.4-1.2-0.6-2-0.6c-1,0-1.9,0.3-2.6,1c-0.7,0.7-1.2,1.6-1.5,2.8
		c-0.1,0.6-0.2,2-0.2,4.1v8.1h-5v-20.1H646.3z M636.7,182.9h5V203h-5V182.9z M639.2,174.7c0.9,0,1.6,0.3,2.3,1c0.6,0.6,1,1.4,1,2.3
		c0,0.9-0.3,1.7-0.9,2.3c-0.6,0.6-1.4,0.9-2.3,0.9c-0.9,0-1.7-0.3-2.3-1c-0.6-0.6-1-1.4-1-2.3c0-0.9,0.3-1.6,0.9-2.3
		C637.5,175,638.3,174.7,639.2,174.7z M626.4,175.5h5v7.4h3v4.4h-3v15.8h-5v-15.8h-2.6v-4.4h2.6V175.5z M603.1,182.9h5v2.1
		c1.1-1,2.2-1.6,3.1-2c0.9-0.4,1.9-0.6,2.9-0.6c2,0,3.7,0.7,5.1,2.1c1.2,1.2,1.8,2.9,1.8,5.2V203h-5v-8.8c0-2.4-0.1-4-0.3-4.8
		s-0.6-1.4-1.1-1.8c-0.5-0.4-1.2-0.6-2-0.6c-1,0-1.9,0.3-2.6,1c-0.7,0.7-1.2,1.6-1.5,2.8c-0.1,0.6-0.2,2-0.2,4.1v8.1h-5v-20.1H603.1
		z M580.3,182.9h5.1v9.7c0,1.9,0.1,3.2,0.4,3.9c0.3,0.7,0.7,1.3,1.2,1.7c0.6,0.4,1.3,0.6,2.1,0.6s1.6-0.2,2.1-0.6
		c0.6-0.4,1-1,1.3-1.8c0.2-0.6,0.3-1.8,0.3-3.7v-9.8h5v8.5c0,3.5-0.3,5.9-0.8,7.2c-0.7,1.6-1.7,2.8-3,3.6s-3,1.3-5,1.3
		c-2.2,0-4-0.5-5.4-1.5s-2.3-2.4-2.9-4.1c-0.4-1.2-0.6-3.4-0.6-6.7v-8.3H580.3z M565.6,187.2c-1.6,0-2.9,0.5-3.9,1.6
		s-1.6,2.5-1.6,4.2s0.5,3.2,1.5,4.2c1,1.1,2.3,1.6,3.9,1.6c1.6,0,2.9-0.5,3.9-1.6s1.6-2.5,1.6-4.2s-0.5-3.1-1.5-4.2
		C568.5,187.7,567.2,187.2,565.6,187.2z M565.5,182.4c1.9,0,3.7,0.5,5.4,1.4s3,2.2,3.9,3.9c0.9,1.6,1.4,3.4,1.4,5.3
		c0,1.9-0.5,3.7-1.4,5.3s-2.2,2.9-3.9,3.9c-1.6,0.9-3.4,1.4-5.4,1.4c-2.9,0-5.4-1-7.4-3.1S555,196,555,193c0-3.1,1.2-5.8,3.5-7.8
		C560.6,183.4,562.9,182.4,565.5,182.4z M551.5,187l-4.2,2.3c-0.8-0.8-1.6-1.4-2.3-1.7c-0.8-0.3-1.7-0.5-2.7-0.5
		c-1.9,0-3.4,0.6-4.6,1.7c-1.2,1.1-1.7,2.6-1.7,4.3s0.6,3.1,1.7,4.2c1.1,1.1,2.6,1.6,4.4,1.6c2.3,0,4-0.8,5.3-2.3l4,2.7
		c-2.2,2.8-5.2,4.2-9.1,4.2c-3.5,0-6.3-1-8.3-3.1s-3-4.5-3-7.3c0-1.9,0.5-3.7,1.5-5.4c1-1.6,2.3-2.9,4.1-3.9
		c1.7-0.9,3.7-1.4,5.9-1.4c2,0,3.8,0.4,5.4,1.2C549.2,184.4,550.5,185.6,551.5,187z M527.3,187l-4.2,2.3c-0.8-0.8-1.6-1.4-2.3-1.7
		c-0.8-0.3-1.7-0.5-2.7-0.5c-1.9,0-3.4,0.6-4.6,1.7c-1.2,1.1-1.7,2.6-1.7,4.3s0.6,3.1,1.7,4.2c1.1,1.1,2.6,1.6,4.4,1.6
		c2.3,0,4-0.8,5.3-2.3l4,2.7c-2.2,2.8-5.2,4.2-9.1,4.2c-3.5,0-6.3-1-8.3-3.1s-3-4.5-3-7.3c0-1.9,0.5-3.7,1.5-5.4
		c1-1.6,2.3-2.9,4.1-3.9c1.7-0.9,3.7-1.4,5.9-1.4c2,0,3.8,0.4,5.4,1.2C524.9,184.4,526.2,185.6,527.3,187z M491,183.1l-3.7,9.4h7.4
		L491,183.1z M488.4,175.9h5.2l10.5,27.2h-5.4l-2.1-5.6h-11.2l-2.2,5.6h-5.4L488.4,175.9z M464.4,187l-4.2,2.3
		c-0.8-0.8-1.6-1.4-2.3-1.7c-0.8-0.3-1.7-0.5-2.7-0.5c-1.9,0-3.4,0.6-4.6,1.7c-1.2,1.1-1.7,2.6-1.7,4.3s0.6,3.1,1.7,4.2
		c1.1,1.1,2.6,1.6,4.4,1.6c2.3,0,4-0.8,5.3-2.3l4,2.7c-2.2,2.8-5.2,4.2-9.1,4.2c-3.5,0-6.3-1-8.3-3.1s-3-4.5-3-7.3
		c0-1.9,0.5-3.7,1.5-5.4c1-1.6,2.3-2.9,4.1-3.9c1.7-0.9,3.7-1.4,5.9-1.4c2,0,3.8,0.4,5.4,1.2C462.1,184.4,463.4,185.6,464.4,187z
		 M435,182.9h5V203h-5V182.9z M437.6,174.7c0.9,0,1.6,0.3,2.3,1c0.6,0.6,1,1.4,1,2.3c0,0.9-0.3,1.7-0.9,2.3s-1.4,0.9-2.3,0.9
		s-1.7-0.3-2.3-1c-0.6-0.6-1-1.4-1-2.3c0-0.9,0.3-1.6,0.9-2.3C435.9,175,436.7,174.7,437.6,174.7z M422.6,182.9h1.8
		c0-2.6,0.1-4.2,0.1-4.7c0.1-1.1,0.6-2,1.4-2.6s1.9-1,3.4-1c1,0,2.2,0.2,3.5,0.7v3.8c-0.7-0.2-1.3-0.3-1.8-0.3c-0.6,0-1,0.1-1.3,0.4
		c-0.2,0.2-0.3,0.6-0.3,1.1v2.5h3.2v4.3h-3.2v15.8h-5v-15.8h-1.8L422.6,182.9L422.6,182.9z M415.4,182.9h5V203h-5V182.9z
		 M417.9,174.7c0.9,0,1.6,0.3,2.3,1c0.6,0.6,1,1.4,1,2.3c0,0.9-0.3,1.7-0.9,2.3s-1.4,0.9-2.3,0.9s-1.7-0.3-2.3-1
		c-0.6-0.6-1-1.4-1-2.3c0-0.9,0.3-1.6,0.9-2.3C416.2,175,417,174.7,417.9,174.7z M411.3,187l-4.2,2.3c-0.8-0.8-1.6-1.4-2.3-1.7
		c-0.8-0.3-1.7-0.5-2.7-0.5c-1.9,0-3.4,0.6-4.6,1.7c-1.2,1.1-1.7,2.6-1.7,4.3s0.6,3.1,1.7,4.2c1.1,1.1,2.6,1.6,4.4,1.6
		c2.3,0,4-0.8,5.3-2.3l4,2.7c-2.2,2.8-5.2,4.2-9.1,4.2c-3.5,0-6.3-1-8.3-3.1s-3-4.5-3-7.3c0-1.9,0.5-3.7,1.5-5.4
		c1-1.6,2.3-2.9,4.1-3.9c1.7-0.9,3.7-1.4,5.9-1.4c2,0,3.8,0.4,5.4,1.2C409,184.4,410.3,185.6,411.3,187z M376.2,187.1
		c-1.6,0-2.9,0.5-3.9,1.7c-1,1.1-1.6,2.5-1.6,4.2s0.5,3.2,1.6,4.3s2.3,1.7,3.9,1.7s2.9-0.5,3.9-1.7c1-1.1,1.6-2.5,1.6-4.3
		s-0.5-3.2-1.6-4.3C379.1,187.6,377.8,187.1,376.2,187.1z M381.5,182.9h5V203h-5v-2.1c-1,0.9-2,1.6-3,2s-2.1,0.6-3.2,0.6
		c-2.6,0-4.9-1-6.8-3s-2.8-4.5-2.8-7.5c0-3.1,0.9-5.6,2.8-7.6c1.8-2,4.1-3,6.7-3c1.2,0,2.3,0.2,3.4,0.7c1.1,0.4,2,1.1,2.9,2V182.9z
		 M351.1,186.5h1.7c1.3,0,2.2-0.1,2.7-0.3s0.9-0.5,1.2-0.9c0.3-0.4,0.4-0.9,0.4-1.6c0-1.1-0.4-1.8-1.2-2.3c-0.6-0.4-1.7-0.5-3.3-0.5
		h-1.5L351.1,186.5L351.1,186.5z M345.9,175.9h5.5c3,0,5.1,0.3,6.4,0.8s2.4,1.4,3.1,2.7c0.8,1.2,1.1,2.7,1.1,4.4
		c0,1.9-0.5,3.5-1.5,4.7c-1,1.3-2.3,2.1-4.1,2.6c-1,0.3-2.8,0.4-5.5,0.4V203h-5.2v-27.1H345.9z"/>
</g>
</svg>
